<?xml version="1.0" standalone="no"?>
<!DOCTYPE svg PUBLIC "-//W3C//DTD SVG 20010904//EN" "http://www.w3.org/TR/2001/REC-SVG-20010904/DTD/svg10.dtd">
<svg
  version="1.0"
  xmlns="http://www.w3.org/2000/svg"
  width="449.000000pt"
  height="449.000000pt"
  viewBox="0 0 449.000000 449.000000"
  preserveAspectRatio="xMidYMid meet"
>
  <g
    transform="translate(0.000000,449.000000) scale(0.100000,-0.100000)"
    fill="#20B134"
    stroke="none"
  >
    <path
      d="M2040 4470 c-282 -27 -512 -92 -775 -220 -235 -114 -427 -252 -612
-439 -459 -464 -694 -1102 -643 -1741 36 -455 170 -812 439 -1175 92 -124 315
-346 441 -441 210 -158 505 -304 740 -368 306 -83 706 -103 991 -50 963 178
1686 911 1834 1859 22 142 30 417 16 550 -27 253 -90 475 -195 690 -78 159
-202 358 -231 368 -38 15 -77 7 -106 -22 -45 -46 -39 -71 48 -201 375 -563
417 -1298 109 -1936 -296 -612 -880 -1036 -1571 -1139 -144 -21 -422 -21 -574
0 -515 73 -968 329 -1309 740 -104 126 -166 219 -242 370 -399 785 -241 1747
389 2375 236 234 480 388 775 490 242 82 422 113 666 113 324 0 616 -66 888
-200 l113 -56 -43 -44 c-67 -69 -64 -69 -180 -14 -526 249 -1181 221 -1695
-72 -157 -90 -261 -167 -381 -282 -327 -313 -526 -700 -588 -1140 -22 -159
-15 -430 15 -599 39 -218 147 -490 270 -678 381 -585 1054 -920 1741 -868 201
16 462 75 571 131 61 30 69 110 17 151 -33 25 -60 22 -173 -16 -508 -172
-1061 -96 -1525 211 -86 57 -148 110 -246 207 -285 286 -448 616 -495 999 -17
140 -6 425 20 547 80 369 296 741 562 967 267 226 554 362 864 409 359 54 711
2 1018 -152 65 -33 120 -54 141 -54 43 0 96 38 213 154 96 95 123 145 109 200
-12 49 -291 195 -509 267 -285 94 -621 135 -897 109z"
    />
    <path
      d="M4125 4418 c-74 -54 -232 -198 -365 -334 -285 -292 -546 -608 -832
-1009 -181 -253 -547 -827 -604 -949 -17 -35 -34 -48 -34 -25 0 17 -78 147
-138 229 -117 161 -311 330 -378 330 -48 0 -84 -37 -84 -87 0 -32 7 -43 52
-83 235 -203 348 -355 437 -587 27 -69 37 -83 65 -97 83 -39 105 -20 221 191
132 241 208 366 420 686 302 455 505 722 816 1072 111 125 346 361 353 355 2
-3 0 -25 -4 -50 -5 -25 -9 -103 -10 -173 0 -104 3 -135 17 -158 31 -52 100
-62 142 -20 15 15 19 42 24 177 6 174 26 305 57 384 29 73 26 106 -11 141 -39
37 -99 39 -144 7z"
    />
    <path
      d="M2075 3813 c-331 -43 -598 -159 -862 -375 -242 -197 -453 -549 -522
-870 -77 -357 -27 -743 136 -1048 170 -318 409 -549 726 -700 229 -110 429
-154 687 -153 340 1 614 84 894 271 55 36 121 86 148 112 40 39 48 52 48 84 0
50 -38 86 -90 86 -31 0 -50 -11 -113 -62 -344 -286 -831 -384 -1284 -258 -300
83 -602 305 -778 571 -342 519 -299 1177 111 1669 302 364 777 550 1237 486
156 -22 268 -55 407 -121 64 -30 123 -55 133 -55 26 0 76 52 83 85 8 45 -24
79 -125 129 -214 106 -437 157 -681 154 -69 0 -138 -3 -155 -5z"
    />
    <path
      d="M3679 2325 c-15 -8 -29 -21 -32 -30 -4 -8 -9 -80 -13 -159 l-7 -144
26 -26 c48 -48 108 -44 142 8 18 27 34 251 21 300 -7 29 -59 66 -91 66 -11 -1
-32 -7 -46 -15z"
    />
    <path
      d="M3598 1820 c-9 -6 -29 -43 -44 -83 -39 -104 -89 -201 -145 -283 -58
-83 -62 -113 -19 -155 24 -25 37 -30 67 -27 34 3 44 11 91 73 88 117 192 337
192 406 0 61 -84 102 -142 69z"
    />
  </g>
</svg>
